<svg width="52" height="52" viewBox="0 0 52 52" fill="none" xmlns="http://www.w3.org/2000/svg">
<path d="M37.0499 31.3625C35.6243 31.3625 34.4192 30.8703 33.4348 29.8859C32.4504 28.9015 31.9583 27.6965 31.9583 26.2708C31.9583 24.8451 32.4504 23.6401 33.4348 22.6557C34.4192 21.6713 35.6243 21.1791 37.0499 21.1791C38.4756 21.1791 39.6806 21.6713 40.665 22.6557C41.6494 23.6401 42.1416 24.8451 42.1416 26.2708C42.1416 27.6965 41.6494 28.9015 40.665 29.8859C39.6806 30.8703 38.4756 31.3625 37.0499 31.3625ZM26.4333 43.3333V40.5708C26.4333 39.6319 26.6319 38.8284 27.0291 38.1604C27.4263 37.4923 27.986 36.9777 28.7083 36.6166C30.0444 35.9305 31.3985 35.425 32.7708 35.1C34.143 34.775 35.5694 34.6125 37.0499 34.6125C38.5305 34.6125 39.9569 34.7659 41.3291 35.0729C42.7013 35.3798 44.0555 35.8944 45.3916 36.6166C46.1138 36.9416 46.6735 37.4472 47.0708 38.1333C47.468 38.8194 47.6666 39.6319 47.6666 40.5708V43.3333H26.4333ZM21.6666 25.9458C19.2833 25.9458 17.3333 25.1875 15.8166 23.6708C14.2999 22.1541 13.5416 20.2041 13.5416 17.8208C13.5416 15.4375 14.2999 13.4875 15.8166 11.9708C17.3333 10.4541 19.2833 9.6958 21.6666 9.6958C24.0499 9.6958 25.9999 10.4541 27.5166 11.9708C29.0333 13.4875 29.7916 15.4375 29.7916 17.8208C29.7916 20.2041 29.0333 22.1541 27.5166 23.6708C25.9999 25.1875 24.0499 25.9458 21.6666 25.9458ZM4.33325 43.3333V38.2416C4.33325 37.0139 4.6402 35.8854 5.25409 34.8562C5.86797 33.8271 6.78285 33.0416 7.99871 32.5C10.4301 31.4166 12.7562 30.6041 14.977 30.0625C17.1978 29.5208 19.4232 29.25 21.653 29.25C22.8176 29.25 23.8513 29.3041 24.7541 29.4125C25.6569 29.5208 26.6319 29.6833 27.6791 29.9L26.2978 31.2812L24.9166 32.6625C24.4471 32.5902 23.9416 32.5451 23.3999 32.5271C22.8583 32.509 22.2805 32.5 21.6666 32.5C19.6216 32.5 17.6209 32.7076 15.6644 33.1229C13.7075 33.5382 11.5916 34.3055 9.31659 35.425C8.81103 35.6777 8.39575 36.075 8.07075 36.6166C7.74575 37.1583 7.58325 37.7 7.58325 38.2416V40.0833H23.1833V43.3333H4.33325ZM21.6666 22.6958C23.0749 22.6958 24.2395 22.2354 25.1603 21.3146C26.0812 20.3937 26.5416 19.2291 26.5416 17.8208C26.5416 16.4125 26.0812 15.2479 25.1603 14.3271C24.2395 13.4062 23.0749 12.9458 21.6666 12.9458C20.2583 12.9458 19.0937 13.4062 18.1728 14.3271C17.252 15.2479 16.7916 16.4125 16.7916 17.8208C16.7916 19.2291 17.252 20.3937 18.1728 21.3146C19.0937 22.2354 20.2583 22.6958 21.6666 22.6958Z" fill="white"/>
</svg>
