<svg width="240" height="140" viewBox="0 0 240 140" fill="none" xmlns="http://www.w3.org/2000/svg">
<path fill-rule="evenodd" clip-rule="evenodd" d="M150.14 0H154.241L155.111 0.124288V14.9145H162.071L164.93 15.0388L165.054 15.1631V19.8861H170.896L174.873 20.0104L174.997 20.1346V24.8576H189.912V20.3832L190.036 20.0104L193.889 19.8861H210.668L214.894 20.0104L215.018 20.1346V24.8576H219.865L229.933 24.9819L230.057 25.1062V29.8291H234.407L239.876 29.9534L240 30.202V41.015L239.876 44.7436L239.254 44.8679L235.028 44.9922L234.904 54.6867L234.78 54.811L230.057 54.9353V69.6012L229.187 69.8498H225.831L224.961 69.7255L224.837 59.9068V44.9922H215.142L215.018 64.6297L214.894 64.754H209.922L209.798 40.0207L205.448 39.8964L204.951 39.6478V35.0492L199.979 34.9249V69.7255L197.494 69.8498H195.505L195.008 69.7255L194.883 69.4769L194.759 49.9637H185.065L184.94 64.754H180.093L179.969 64.5054L179.845 40.0207L175.37 39.8964L174.997 39.7721L174.873 35.1735L173.506 35.0492L170.026 34.9249V39.6478L169.902 39.7721L167.664 39.8964H165.054V59.6582L164.93 59.7825L163.19 59.9068H155.111V69.4769L154.987 69.7255L153.993 69.8498H150.886L150.016 69.7255L149.891 68.1098V40.0207L145.044 39.8964V44.6194L144.92 44.7436L143.428 44.8679H140.072V48.0994L139.948 64.754H134.977L134.852 62.144V40.0207L125.034 39.8964V69.7255L123.418 69.8498H120.684L119.938 69.6012L119.814 65.0026L116.085 64.8783L115.091 64.754L114.966 64.1326V44.8679H105.023V49.7152L104.775 49.8395H100.052L99.9275 69.7255L95.7017 69.8498L94.956 69.7255L94.8317 44.9922L90.1087 44.8679L89.9845 44.7436V39.8964H85.0129L84.8887 44.7436L83.5215 44.8679H80.0414V59.6582L79.9171 59.7825H75.0699L74.9456 55.681V49.9637H65.1269L65.0026 69.7255L64.0083 69.8498H61.274L60.1554 69.7255L60.0311 69.6012L59.9068 54.9353L55.0596 54.811L54.9353 54.4381V49.9637L50.088 49.8395V60.0311L49.9637 64.754L45.6137 64.8783L45.1165 64.754L44.9922 64.3811V44.8679H35.0492V69.7255L32.6877 69.8498H30.5748L30.0777 69.7255V40.0207L25.1062 39.8964L24.9819 44.7436L24.3604 44.8679L20.1346 44.9922L20.0104 59.7825L18.6432 59.9068H15.2874L15.0388 59.161V49.9637H5.22009L5.09581 69.7255L4.35008 69.8498L0.124288 69.7255L0 69.1041V30.202L0.124288 29.9534H9.94304L10.0673 30.0777V34.9249H20.0104V30.0777L20.1346 29.9534L26.7219 29.8291H40.0207V25.1062L40.145 24.9819L47.478 24.8576H53.3195L59.9068 24.9819L60.0311 25.1062V29.8291H79.7929L79.9171 25.2304L80.0414 24.9819L89.9845 24.8576V20.0104L93.0917 19.8861H99.9275V15.1631L100.052 15.0388L102.413 14.9145H117.204L119.938 15.0388L120.062 15.2874V19.8861H129.881V15.7846L130.005 15.0388L133.112 14.9145H144.92V5.34438L145.293 4.97152L149.767 4.84723L149.891 0.124288L150.14 0ZM42.5061 84.8889H43.2519L44.3704 85.6346L45.6133 86.7532L46.6076 87.6232L47.8505 88.7418L48.8448 89.6118L50.4606 91.1032L51.952 92.4704L53.692 93.9619L55.0592 95.0805L55.1835 85.0131L55.3078 84.8889H60.155L60.2793 85.0131V104.402L60.0307 104.899L59.6579 105.023L58.6636 104.526L56.7992 102.786L55.8049 101.916L54.5621 100.798L53.1949 99.5548L52.2006 98.6848L50.7091 97.3176L49.342 96.1991L47.8505 94.8319L47.4776 94.7076V104.775L47.1048 104.899H42.6304L42.3818 104.651V85.2617L42.5061 84.8889ZM103.532 84.7643H90.1092L89.9849 84.8886V104.65L90.1092 104.775H102.911L103.781 104.526V100.052L103.657 99.9275L95.205 99.8032V97.1931H101.419L101.792 97.0688V92.4702L100.922 92.3459H95.205V89.6116H103.408L103.657 89.4873L103.781 88.6173V84.8886L103.532 84.7643ZM0.124288 84.8889H4.72294L4.97152 85.0131L5.09581 97.3176L5.46867 98.4362L6.58726 99.4305L7.95443 99.9277H9.81875L11.1859 99.4305L12.1802 98.6848L12.6774 97.9391L12.8017 96.9448L12.9259 85.0131L13.0502 84.8889H17.7732L18.0217 85.1374V88.2446L17.8975 98.1877L17.4003 99.9277L16.6546 101.295L15.6603 102.538L14.4174 103.532L13.0502 104.278L11.6831 104.775L10.3159 105.023H7.45728L5.71724 104.651L4.22579 104.029L2.85862 103.035L1.74003 101.916L0.870016 100.549L0.372864 99.4305L0.124288 98.4362L0 95.7019V85.386L0.124288 84.8889ZM131.87 84.8889H126.526V85.386L127.769 87.3746L129.384 90.1089L131.497 93.589L132.119 94.8319L131.994 95.329L129.881 98.8091L128.39 101.295L126.401 104.651L126.526 104.899H131.746L132.243 104.526L134.107 101.543L135.35 99.6791H135.723L136.22 100.425L137.463 102.413L138.706 104.278L139.327 104.899H144.547V104.526L143.553 102.786L141.44 99.3063L140.197 97.3176L139.079 95.329L138.954 94.7076L139.949 92.9676L141.813 89.8604L142.807 88.2446L144.423 85.5103L144.672 85.0131L144.423 84.8889H139.203L138.954 85.1374L137.463 87.3746L135.723 90.1089L135.35 89.9847L133.486 87.2503L132.367 85.386L131.87 84.8889ZM180.591 84.7643H182.828L184.941 85.1372L186.805 85.8829L188.669 87.0015L189.664 87.8715L189.788 88.2444L188.918 89.2387L188.297 89.9844L187.302 90.8545L186.681 91.4759L186.059 91.3516L184.817 90.4816L183.574 89.9844L182.952 89.8601H180.591L179.348 90.233L177.981 90.9787L176.738 92.2216L176.241 93.2159L175.992 94.0859V95.9503L176.489 97.3174L177.608 98.5603L178.975 99.4303L180.591 99.9275H182.952L184.568 99.4303L185.811 98.6846L186.432 98.1874L187.302 98.9332L188.545 100.176L189.291 100.797L189.788 101.419L189.664 102.04L188.421 103.035L186.432 104.153L185.065 104.65L182.952 105.023H180.715L178.975 104.775L176.738 104.029L174.873 102.91L173.631 101.792L172.512 100.549L171.518 98.8089L170.896 96.8203L170.772 96.0745V93.7131L171.269 91.6002L172.263 89.6116L173.258 88.3687L174.501 87.1258L176.116 86.1315L177.359 85.5101L178.975 85.0129L180.591 84.7643ZM230.181 84.8889H229.311L229.062 85.1374L228.317 86.3803L226.701 89.7361L224.712 93.9619L222.226 99.0577L219.865 104.029L219.741 104.775H224.712L225.209 104.153L226.204 102.165L226.577 101.792H233.288V102.041L234.158 103.781L234.78 104.775H239.751L239.875 104.526L238.508 101.543L236.52 97.4419L235.152 94.5833L233.537 91.3518L231.921 87.8718L230.927 86.0074L230.181 84.8889ZM228.689 97.3176L229.684 95.329L229.932 95.4533L230.429 96.5719L230.802 97.6905H228.814L228.689 97.3176ZM97.3174 129.259H100.176L101.295 129.508L101.543 129.757L101.667 131.497L101.419 131.621L99.8032 131.248H97.566L96.3231 131.87L95.7017 132.615L95.3288 133.858V135.35L95.7017 136.344L96.3231 137.09L96.9445 137.462L97.4417 137.587H99.306L99.6789 137.338V135.847L99.5546 135.598L97.6903 135.474L97.566 135.35V133.858L97.6903 133.734H101.419L102.165 133.858V137.835L102.04 138.83L101.046 139.202L100.052 139.451L97.9388 139.575L96.0745 139.327L94.8316 138.83L93.8373 137.96L93.0916 136.717L92.7188 135.598V133.485L93.2159 132.118L93.9616 130.999L94.9559 130.129L96.3231 129.508L97.3174 129.259ZM88.2439 114.593H86.6282L86.5039 114.966L86.6282 124.536H88.2439L88.3682 116.831L89.8597 119.068L91.3511 121.181L93.2155 123.915L93.9612 124.536H95.5769L95.7012 124.288V114.718L95.5769 114.593H94.0855L93.9612 114.718V122.175L93.8369 122.051L92.4697 120.062L90.6054 117.328L88.8654 114.842L88.2439 114.593ZM135.971 129.259H138.705L139.451 129.508L139.699 129.881V131.497L138.581 131.372L137.835 131.248H136.716L135.474 131.621L134.976 131.994H134.728L134.479 132.491L134.106 133.361L133.982 134.852L134.355 136.095L134.976 136.965L135.846 137.462L136.468 137.587H138.084L139.575 137.09L139.699 137.214V138.83L139.451 139.202L138.705 139.451L137.462 139.575H136.095L134.479 139.327L133.236 138.705L132.242 137.711L131.621 136.468L131.372 135.598V133.61L131.869 132.118L132.615 130.999L133.734 130.005L135.225 129.384L135.971 129.259ZM199.11 117.328H197.494L196.5 117.825L195.754 118.322V117.576L195.63 117.452H194.138V124.537H195.754L195.878 120.435L196.003 119.814L196.624 118.819L197.618 118.571L198.364 118.944L198.861 119.689L198.985 124.412L199.11 124.537H200.601L200.725 120.932L200.974 119.689L201.471 118.944L202.217 118.571L202.963 118.695L203.584 119.316L203.833 120.186V124.412L203.957 124.537H205.324L205.448 124.412V119.192L205.2 118.446L204.578 117.701L203.708 117.328H202.217L201.595 117.576L200.85 118.198L200.353 118.446L199.855 117.825L199.11 117.328ZM122.548 132.118H123.915L124.785 132.491L125.406 133.237L125.779 134.604V139.327L125.53 139.451H123.418L123.169 134.728L122.92 134.107L122.423 133.858L121.429 133.983L120.808 134.728L120.683 139.203L120.559 139.327H118.446L118.322 139.203V132.367L118.446 132.243H120.683L120.808 132.988L121.553 132.491L122.548 132.118ZM1.61548 114.593H0.124023V121.678L0.248311 122.299L0.745463 123.418L1.73977 124.288L2.98265 124.661H5.34412L6.58699 124.288L7.70559 123.294L8.20274 122.299L8.45131 120.435V114.718L8.20274 114.593H6.71128L6.58699 121.181L6.33842 122.051L5.96555 122.672L5.09554 123.169H3.4798L2.85836 122.921L2.23692 122.299L1.86405 121.305V115.091L1.61548 114.593ZM170.772 117.328H172.263L173.382 117.825L174.128 118.819L174.5 119.938V121.678L174.128 122.921L173.382 123.915L172.76 124.412L171.89 124.661H170.275L169.28 124.164L168.908 123.791L168.783 127.768L167.789 127.892L167.167 127.768V117.452H168.535L168.783 117.576L168.908 118.446L169.778 117.701L170.772 117.328ZM170.275 118.571L169.405 119.068L168.908 119.814L168.783 120.186V122.175L169.28 122.921L170.026 123.418L171.145 123.542L172.139 123.045L172.636 122.299L172.885 121.305V120.186L172.512 119.316L171.766 118.695L171.518 118.571H170.275ZM62.6406 113.972H61.8949L61.0249 114.096V118.198L60.5277 117.825L59.5334 117.328H57.7934L56.5505 117.949L55.8048 118.819L55.3076 120.062V122.051L55.8048 123.294L56.5505 124.164L57.5448 124.661H59.4091L59.782 124.537L60.4034 124.039L61.1492 123.542L61.0249 124.164L61.1492 124.537H62.6406L62.7649 122.796L62.6406 113.972ZM57.9177 118.819L59.0363 118.446L60.0306 118.695L60.7763 119.316L61.1492 120.435V121.554L61.0249 122.175L60.2791 123.045L59.5334 123.542H58.4148L57.9177 123.294L57.2962 122.672L56.9234 121.678V120.684L57.2962 119.565L57.9177 118.819ZM60.7768 128.886H62.3926V139.202L62.2683 139.451H61.1497L60.9011 139.326L60.6525 138.456L59.5339 139.326L59.1611 139.451H57.1725L56.1782 138.954L55.4324 137.959L55.0596 136.716V135.101L55.4324 133.858L56.1782 132.864L57.2968 132.242L57.9182 132.118H59.1611L60.1554 132.615L60.6525 132.988L60.7768 128.886ZM58.2911 133.361L57.421 133.858L56.9239 134.479L56.6753 135.349V136.716L57.1725 137.711L58.0425 138.332L59.0368 138.456L60.0311 137.959L60.6525 137.214L60.9011 135.971L60.7768 134.604L59.9068 133.609L59.4096 133.361H58.2911ZM79.793 113.972H78.3015L78.1772 114.096V117.576L78.3015 118.322L77.6801 117.825L76.6858 117.328H75.07L74.3243 117.576L73.33 118.446L72.8328 119.192L72.46 120.435V121.554L72.5843 122.299L72.9571 123.169L73.7028 124.164L74.6971 124.661H76.5615L77.5558 124.164L77.6801 123.791L78.0529 123.667L78.3015 124.537H79.793V113.972ZM74.8214 119.068L75.5672 118.571H76.9343L77.1829 118.695L77.9286 119.316L78.3015 120.311V121.305L78.1772 122.051L77.8043 122.796L77.1829 123.294L76.0643 123.667L75.07 123.294L74.4486 122.548L74.0757 121.678V120.559L74.2 120.062L74.8214 119.068ZM112.232 132.118H114.22L115.215 132.491L115.836 133.113L116.209 133.61L116.333 133.983L116.458 135.35V139.203L116.209 139.451H114.593L114.096 138.954V138.705L113.226 139.451H110.865L110.119 138.954L109.622 138.208L109.498 137.09L109.87 136.22L110.492 135.598L111.61 135.101L114.096 134.728L113.972 134.107L113.599 133.734H112.108L110.74 134.231L110.243 134.107V132.74L110.368 132.491L112.232 132.118ZM113.102 136.095L111.983 136.468L111.735 136.717V137.711L112.108 138.084H113.475L114.096 137.463L114.22 137.09V136.22L114.096 136.095H113.102ZM159.71 132.118H157.721L156.354 132.367L155.857 132.864V133.983L155.981 134.231H156.354L157.349 133.858L158.84 133.61L159.586 134.107L159.71 134.728L158.84 134.853L156.851 135.225L155.857 135.723L155.36 136.344L155.111 137.338L155.236 138.208L155.733 138.954L156.479 139.451H158.716L159.213 139.078L159.71 138.83L160.083 139.451H161.823L162.071 139.203V134.728L161.947 133.983L161.574 133.237L160.953 132.615L159.71 132.118ZM157.721 136.344L158.84 136.095H159.71L159.834 136.22V137.09L159.461 137.711L158.84 138.084H157.721L157.349 137.711V136.717L157.721 136.344ZM173.506 132.118H175.371L176.365 132.491L176.986 132.988L177.484 133.858L177.608 134.355V139.327L177.359 139.451H175.743L174.998 138.705L174.749 139.203L174.252 139.451H172.015L171.269 138.954L170.896 138.333L170.772 137.835V136.717L171.269 135.847L172.139 135.35L173.631 134.977L175.246 134.728L175.122 133.983L174.749 133.734H173.382L171.766 134.231H171.518L171.393 132.988L171.642 132.491L173.506 132.118ZM174.749 135.971L173.506 136.22L172.885 136.965L173.009 137.835L173.258 138.084H174.501L175.246 137.463L175.495 136.965V136.22L175.122 135.971H174.749ZM145.416 132.118H143.303L142.185 132.367L141.563 132.864V134.107H142.06L143.303 133.734L144.671 133.61L145.292 134.107L145.416 134.728L143.552 134.977L142.185 135.35L141.439 135.847L140.942 136.593V138.084L141.066 138.457L141.563 139.078L142.185 139.451H144.298L145.043 138.954L145.541 138.83L145.789 139.451H147.529L147.653 139.327V134.48L147.529 133.734L147.281 133.237L146.411 132.491L145.416 132.118ZM143.428 136.344L144.546 136.095H145.416L145.541 136.22L145.416 137.338L145.043 137.835L144.298 138.208L143.428 138.084L142.93 137.587V136.717L143.428 136.344ZM151.755 114.593H157.348L157.473 114.718V115.836L157.348 115.961H153.495L153.371 118.819H157.1L157.224 119.192L157.1 120.186H153.371V123.294H157.597L157.721 123.418V124.536H151.88L151.755 124.412V114.593ZM121.802 117.328H119.689L119.192 117.452L118.197 117.949L117.327 118.819L116.83 120.186V121.926L116.954 122.424L117.576 123.542L118.446 124.288L119.564 124.661H121.926L122.796 124.412L123.914 123.418L124.536 122.175V119.814L123.79 118.322L123.044 117.701L121.802 117.328ZM118.819 119.565L119.316 118.944L120.062 118.571H121.429L121.802 118.695L122.547 119.316L122.92 120.186V121.926L122.796 122.299L122.174 123.045L121.18 123.542H120.31L119.564 123.294L118.943 122.672L118.446 121.678V120.559L118.819 119.565ZM232.169 117.328H234.034L235.277 117.825L235.774 118.446L236.022 119.068L236.147 119.938V124.412L236.022 124.537H234.779L234.531 124.412L234.407 123.791L233.661 124.412L232.915 124.661H230.926L230.056 123.915L229.684 122.796L229.932 121.554L230.554 120.808L232.045 120.311L234.407 119.938L234.282 119.316L233.909 118.695L233.412 118.446H232.542L231.299 118.819L230.678 119.192L230.305 119.068L230.429 117.949L231.424 117.452L232.169 117.328ZM233.661 121.056L231.921 121.429L231.299 121.802L231.175 122.548L231.548 123.294L232.045 123.667H232.915L233.909 123.045L234.407 122.424L234.531 122.175V121.181L234.407 121.056H233.661ZM131.373 117.328H129.881L129.384 117.452L128.887 117.825L128.141 118.322L128.017 117.452H127.023L126.401 117.701V124.412L126.526 124.537H128.017L128.141 124.412L128.266 119.814L128.39 119.565L128.887 118.944L130.006 118.571L130.627 118.695L131.249 119.316L131.497 120.435V124.039L131.621 124.537H133.113L133.237 124.412V119.814L133.113 119.068L132.74 118.198L132.243 117.701L131.373 117.328ZM181.211 132.118H183.448L184.318 132.367L184.443 133.734L184.07 133.983L183.2 133.734H181.833L181.46 133.858L181.584 134.604L183.946 135.598L184.816 136.593V137.96L184.07 138.954L183.324 139.327L182.703 139.451H179.471L178.974 138.954V137.711L179.223 137.587L179.968 137.96L180.59 138.084H181.957L182.454 137.835V137.214L179.72 135.847L179.098 135.101V133.734L179.596 132.988L180.217 132.491L181.211 132.118ZM35.2981 117.328H33.4338L32.3152 117.825L31.4452 118.695L30.8237 120.186V121.802L30.948 122.299L31.4452 123.418L32.3152 124.288L33.4338 124.661H35.7952L36.6653 124.412L37.1624 123.915L37.2867 123.045L37.1624 122.921L36.541 123.169L35.4224 123.542H34.4281L33.3095 123.169L32.688 122.424L32.5638 121.429H37.6596L37.7839 121.305L37.6596 119.689L37.1624 118.571L36.541 117.825L35.2981 117.328ZM33.0609 118.944L34.3038 118.322H34.6767L35.5467 118.695L36.0438 119.441L36.1681 120.311L33.4338 120.435L32.4395 120.311L32.5638 119.689L33.0609 118.944ZM219.244 117.328H220.735L221.729 117.825L222.351 118.571L222.475 118.944L222.6 120.311V124.412L222.475 124.537H220.984L220.859 124.412V120.062L220.487 119.068L219.989 118.695H218.747L218.249 118.944L217.628 119.938L217.504 123.542V124.412L217.379 124.537H215.888L215.764 124.164V117.452H217.379L217.504 118.074L217.628 118.322L218.498 117.576L219.244 117.328ZM211.787 117.328H209.922L209.425 117.452L208.307 118.198L207.561 119.192L207.188 120.559V121.678L207.437 122.672L208.058 123.791L208.679 124.288L209.798 124.661H212.16L212.781 124.537L213.278 124.164L213.651 123.542L213.527 122.921L212.905 123.169L211.911 123.542H210.668L209.798 123.169L209.177 122.548L208.804 121.429H214.024L214.148 121.305V120.435L213.775 118.944L213.03 117.949L211.787 117.328ZM209.674 118.819L210.544 118.322H211.165L211.911 118.695L212.408 119.441L212.532 120.311H208.928L208.804 120.186L209.052 119.565L209.674 118.819ZM137.214 117.328H139.203L140.197 117.701L140.943 118.571L141.192 119.441V124.412L141.067 124.537H139.825L139.576 124.164V123.667L138.457 124.537L138.085 124.661H136.22L135.474 124.164L134.977 123.542L134.853 123.294V121.802L135.35 121.056L136.22 120.559L137.836 120.186L139.203 120.062L139.576 119.814L139.079 118.819L138.706 118.571H137.214L135.723 119.192L135.35 119.068L135.474 118.198L135.972 117.701L137.214 117.328ZM138.582 121.056L136.966 121.429L136.344 121.926L136.469 123.045L137.09 123.667L137.712 123.791L138.955 123.169L139.576 122.424L139.7 121.429L139.576 121.056H138.582ZM85.0129 132.118H83.1486L81.7815 132.491L81.16 132.988V133.983H81.5329L82.2786 133.61L83.3972 133.361H84.3915L84.8886 133.734L85.2615 134.853L82.6515 135.225L81.5329 135.598L80.9114 136.095L80.5386 136.841V138.084L81.0357 138.954L81.9057 139.451H83.8943L84.7644 138.954L85.3858 138.581L85.5101 139.451H86.753L86.8773 139.078V134.231L86.6287 133.361L86.0072 132.615L85.0129 132.118ZM82.5272 136.344L84.1429 135.971H85.3858V136.841L85.2615 137.214L84.7644 137.96L83.5215 138.581L82.7758 138.457L82.1543 137.835L82.03 136.841L82.5272 136.344ZM67.2397 132.118H68.6069L69.7255 132.491L70.3469 133.113L70.9684 134.107L71.217 135.474V136.095L71.0927 136.22H65.8726L66.3697 137.587L67.1155 138.208L67.4883 138.333H69.2284L70.2227 137.835H70.7198L70.5955 138.705L70.0984 139.203L69.4769 139.451L67.7369 139.576L66.2454 139.327L65.3754 138.83L64.6297 137.711L64.2568 136.468V135.225L64.6297 133.983L65.4997 132.988L66.1212 132.491L67.2397 132.118ZM67.4883 133.237L66.7426 133.61L65.9969 134.48V135.225H69.3526L69.4769 135.101L69.3526 134.107L68.7312 133.361L68.4826 133.237H67.4883ZM180.218 117.328H178.602L178.105 117.452L177.235 117.949L176.365 118.944L175.868 120.311V121.926L176.489 123.418L177.359 124.288L178.353 124.661H180.839L181.958 124.288L182.331 123.667L182.206 123.045L181.585 123.169L180.591 123.542H179.348L178.353 123.169L177.856 122.548L177.732 121.429H182.704L182.828 121.181L182.704 119.938L182.206 118.571L181.585 117.825L180.218 117.328ZM178.229 118.819L179.223 118.322H179.969L180.466 118.571L180.963 119.192L181.212 120.311L180.715 120.435H178.229L177.608 120.311V119.814L178.229 118.819ZM100.052 117.328H102.04L103.159 117.825L103.78 118.819L103.905 119.316L104.029 124.412L103.905 124.537H102.537L102.289 123.667L101.17 124.537L100.922 124.661H99.0574L98.0631 124.039L97.5659 123.045V122.175L97.9388 121.305L98.6845 120.684L100.549 120.186L102.413 119.938L102.04 119.068L101.543 118.571L100.549 118.446L98.9331 118.944L98.1874 119.192V118.322L98.6845 117.701L100.052 117.328ZM101.419 121.056L100.052 121.305L99.3059 121.802L99.0574 122.175L99.1817 123.045L99.9274 123.667L100.425 123.791L101.543 123.294L102.413 122.424L102.537 121.429L102.289 121.056H101.419ZM68.8554 117.328H66.8668L65.624 117.701L65.1268 118.198V119.192L65.624 119.068L66.8668 118.571H68.3583L68.9797 119.192L69.2283 119.938L68.8554 120.062L67.4883 120.186L65.8725 120.559L65.0025 121.056L64.5054 121.926V123.294L64.6297 123.542L65.1268 124.164L65.8725 124.661H67.7369L68.1097 124.537L69.2283 123.667L69.3526 124.537H70.7198V119.068L70.5955 118.571L69.974 117.825L68.8554 117.328ZM66.6183 121.429L68.3583 121.056H69.2283L69.3526 121.181L69.2283 122.424L68.6069 123.169L67.7369 123.667L66.9911 123.791L66.3697 123.418L65.9968 122.796V121.926L66.6183 121.429ZM14.2931 117.328H15.5359L16.5302 117.701L17.276 118.446L17.5245 119.565V124.412L17.4002 124.537H15.9088L15.7845 119.938L15.2874 118.944L14.9145 118.695H13.7959L13.0502 119.068L12.553 119.814L12.4287 120.435V124.412L12.3044 124.537H10.813V117.452H12.4287L12.553 118.322L13.423 117.576L14.2931 117.328ZM169.155 132.118H166.545L166.048 132.243L165.054 132.74L163.935 133.983L163.562 135.101V136.717L163.687 137.214L164.308 138.333L165.178 139.078L166.173 139.451H169.031L169.653 139.078L169.777 138.208L169.653 137.587H169.28L168.658 137.835L167.664 137.96L166.918 137.711L166.297 137.214L165.924 136.22L166.048 135.101L166.421 134.48L167.167 133.983H169.031L169.528 134.231L169.777 134.107V132.988L169.653 132.367L169.155 132.118ZM158.592 117.452H160.332L160.705 117.576L161.699 119.317L162.072 120.062L162.445 119.938L163.563 117.949L164.06 117.452H165.8L165.552 117.949L164.558 119.317L163.439 120.932L163.563 121.429L165.179 123.667L165.676 124.288V124.661L163.936 124.537L163.439 124.039L162.32 122.175L161.948 122.051L161.45 123.045L160.58 124.412L160.456 124.537H158.592L158.965 123.915L160.829 121.305L160.705 120.684L159.71 119.192L158.84 117.949L158.592 117.452ZM24.4844 117.452H22.6201V117.701L23.7387 120.559L25.2302 124.288L25.603 124.537H27.0945L27.3431 124.288L27.8402 123.294L29.8288 118.571L30.2017 117.452H28.8345L28.2131 117.701L27.2188 120.808L26.473 123.294L26.2245 122.797L24.8573 118.447L24.4844 117.452ZM108.255 132.118L109.001 132.243L109.125 133.361L109.001 134.231H107.385L106.764 134.604L106.515 135.225L106.391 135.971L106.266 139.327L106.142 139.451H104.278L104.029 139.203V132.367L104.154 132.243H106.391V132.988L107.012 132.864L107.261 132.367L108.255 132.118ZM154.614 132.243L153.744 132.118L153.123 132.243L152.874 132.491L152.004 132.988L151.88 132.243H149.767L149.643 132.367V139.327H151.88L152.004 135.598L152.253 134.853L152.874 134.231H154.614V132.243ZM46.7327 117.328H49.0942L49.7157 117.576V118.944L49.0942 118.695L48.7214 118.571H47.1056L46.4842 118.944L46.3599 119.441L46.9813 120.062L48.8456 120.808L49.8399 121.554L50.0885 122.051V123.045L49.7157 123.667L48.8456 124.412L47.9756 124.661H45.6142L44.7441 124.412V123.045L45.2413 123.169L46.1113 123.542H47.4785L48.2242 123.169L48.4728 122.548L47.8513 122.051L45.987 121.181L45.117 120.559L44.7441 119.689L44.9927 118.446L45.987 117.576L46.7327 117.328ZM110.989 117.328H108.752L107.758 117.576L107.012 118.074L106.142 119.068L105.645 120.435V121.926L105.894 122.672L106.515 123.667L107.261 124.288L108.379 124.661H110.617L111.362 124.412L111.735 123.791L111.611 122.921H111.362L110.368 123.418H109.001L108.504 123.169L107.882 122.672L107.509 121.926V120.435L107.882 119.565L108.504 118.944L109.622 118.571L110.865 118.819L111.611 119.068L111.735 118.571L111.611 117.576L110.989 117.328ZM226.328 115.464H226.825V117.452H228.69V118.571L228.565 118.695H226.825L226.949 122.797L227.198 123.418H228.69V124.288L228.565 124.537L228.068 124.661H226.452L225.707 124.288L225.334 123.667L225.209 121.802L225.334 118.695H223.842V117.452H225.334V115.836L226.328 115.464ZM78.6743 128.886H77.0586V139.326L77.1829 139.451H78.6743L78.7986 139.326V129.011L78.6743 128.886ZM143.552 113.972H144.919L145.044 114.096V124.412L144.919 124.537H143.428L143.304 123.915V114.221L143.552 113.972ZM239.876 113.972H239.255L238.26 114.096V124.412L238.385 124.537H239.876V113.972ZM188.421 117.328L188.918 117.452V118.695L187.053 119.068L186.556 119.689L186.308 120.062L186.183 124.288L186.059 124.537H184.568L184.443 124.412V117.576L184.568 117.452H185.811L186.183 117.701V118.446L187.178 117.576L187.302 117.452L188.421 117.328ZM43.6247 117.328H42.879L42.1333 117.576L41.6361 118.074L41.3875 118.571H41.139V117.576L41.0147 117.452H39.5232L39.3989 117.576V124.412L39.5232 124.537H40.8904L41.0147 124.412L41.139 120.435L41.3875 119.814L41.8847 119.192L42.7547 118.819H43.8733V117.452L43.6247 117.328ZM190.161 117.452H191.776L191.901 117.576V124.412L191.776 124.537H190.161V117.452ZM114.966 117.452H113.35L113.226 117.576V119.689L113.35 124.537H114.842L114.966 124.412V117.452ZM19.6377 117.452H21.2534L21.3777 117.949L21.2534 124.537H19.762L19.6377 124.412V117.452ZM53.4439 117.452H51.8281V123.915L51.9524 124.537H53.3196L53.4439 124.412V117.452ZM113.475 114.22H114.842L115.09 114.345V115.339L114.842 115.836H113.599L113.226 115.463V114.469L113.475 114.22ZM21.1294 114.22H19.8865L19.5137 114.593L19.638 115.463L20.0108 115.836H21.1294L21.378 115.588L21.5023 114.593L21.1294 114.22ZM190.409 114.22H191.528L191.9 114.345V115.463L191.652 115.836H190.658L190.16 115.588L190.036 114.469L190.409 114.22ZM53.1946 114.22H52.076L51.7031 114.593V115.339L52.2003 115.836H53.1946L53.4432 115.712L53.5674 115.339V114.469L53.1946 114.22Z" fill="white"/>
</svg>
