<?xml version="1.0" encoding="UTF-8"?>
<svg version="1.1" viewBox="0 0 2048 1194" width="540" height="315" xmlns="http://www.w3.org/2000/svg">
<path transform="translate(1268,33)" d="m0 0h33l7 1v119h56l23 1 1 1v38h47l32 1 1 1v38h120v-36l1-3 31-1h135l34 1 1 1v38h39l81 1 1 1v38h35l44 1 1 2v87l-1 30-5 1-34 1-1 78-1 1-38 1v118l-7 2h-27l-7-1-1-79v-120h-78l-1 158-1 1h-40l-1-199-35-1-4-2v-37l-40-1v280l-20 1h-16l-4-1-1-2-1-157h-78l-1 119h-39l-1-2-1-197-36-1-3-1-1-37-11-1-28-1v38l-1 1-18 1h-21v159l-1 1-14 1h-65v77l-1 2-8 1h-25l-7-1-1-13v-226l-39-1v38l-1 1-12 1h-27v26l-1 134h-40l-1-21v-178l-79-1v240l-13 1h-22l-6-2-1-37-30-1-8-1-1-5v-155h-80v39l-2 1h-38l-1 160-34 1-6-1-1-199-38-1-1-1v-39h-40l-1 39-11 1h-28v119l-1 1h-39l-1-33v-46h-79l-1 159-8 1h-22l-9-1-1-1-1-118-39-1-1-3v-36l-39-1v82l-1 38-35 1-4-1-1-3v-157h-80v200l-19 1h-17l-4-1v-239l-40-1-1 39-5 1-34 1-1 119-11 1h-27l-2-6v-74h-79l-1 159-6 1-34-1-1-5v-313l1-2h79l1 1v39h80v-39l1-1 53-1h107v-38l1-1 59-1h47l53 1 1 1v38h159l1-37 1-2 80-1v-39l25-1h55v-38l1-1 19-1h119l22 1 1 2v37h79v-33l1-6 25-1h95v-77l3-3 36-1 1-38z" fill="#032B68"/>
<path transform="translate(402,716)" d="m0 0h6l9 6 10 9 8 7 10 9 8 7 13 12 12 11 14 12 11 9 1-81 1-1h39l1 1v156l-2 4-3 1-8-4-15-14-8-7-10-9-11-10-8-7-12-11-11-9-12-11-3-1v81l-3 1h-36l-2-2v-156z" fill="#032B68"/>
<path transform="translate(785,715)" d="m0 0h108l2 1v30l-1 7-2 1h-66v22h46l7 1v37l-3 1h-50v21l68 1 1 1v36l-7 2h-103l-1-1v-159z" fill="#032B68"/>
<path transform="translate(61,716)" d="m0 0h37l2 1 1 99 3 9 9 8 11 4h15l11-4 8-6 4-6 1-8 1-96 1-1h38l2 2v25l-1 80-4 14-6 11-8 10-10 8-11 6-11 4-11 2h-23l-14-3-12-5-11-8-9-9-7-11-4-9-2-8-1-22v-83z" fill="#042B68"/>
<path transform="translate(1078,716)" d="m0 0h43l4 4 9 15 15 22 3 1 14-22 12-18 2-2h42l2 1-2 4-13 22-8 13-15 25-8 14 1 5 9 16 10 16 17 28 8 14v3h-42l-5-5-10-15-10-16-4-6h-3l-10 15-15 24-4 3h-42l-1-2 16-27 12-20 17-28 1-4-5-10-17-28-13-22-10-16z" fill="#032B68"/>
<path transform="translate(1513,715)" d="m0 0h18l17 3 15 6 15 9 8 7 1 3-7 8-5 6-8 7-5 5-5-1-10-7-10-4-5-1h-19l-10 3-11 6-10 10-4 8-2 7v15l4 11 9 10 11 7 13 4h19l13-4 10-6 5-4 7 6 10 10 6 5 4 5-1 5-10 8-16 9-11 4-17 3h-18l-14-2-18-6-15-9-10-9-9-10-8-14-5-16-1-6v-19l4-17 8-16 8-10 10-10 13-8 10-5 13-4z" fill="#032B68"/>
<path transform="translate(1905,716)" d="m0 0h7l6 9 8 15 13 28 13 26 11 23 16 33 11 24-1 2h-40l-5-8-7-14v-2h-54l-3 3-8 16-4 5h-40l1-6 19-40 20-41 16-34 13-27 6-10zm3 84-8 16 1 3h16l-3-9-4-9z" fill="#042B68"/>
<path transform="translate(843,1073)" d="m0 0h23l9 2 2 2 1 14-2 1-13-3h-18l-10 5-5 6-3 10v12l3 8 5 6 5 3 4 1h15l3-2v-12l-1-2-15-1-1-1v-12l1-1h30l6 1v32l-1 8-8 3-8 2-17 1-15-2-10-4-8-7-6-10-3-9v-17l4-11 6-9 8-7 11-5z" fill="#042B68"/>
<path transform="translate(757,955)" d="m0 0h13l5 2 14 20 15 22 11 16 1 1v-60l1-1h12l1 1v77l-1 2h-13l-6-5-15-22-12-17-12-18-1 62h-13l-1-77z" fill="#303136"/>
<path transform="translate(1154,1073)" d="m0 0h22l6 2 2 3v13l-9-1-6-1h-9l-10 3-4 3h-2l-2 4-3 7-1 12 3 10 5 7 7 4 5 1h13l12-4 1 1v13l-2 3-6 2-10 1h-11l-13-2-10-5-8-8-5-10-2-7v-16l4-12 6-9 9-8 12-5z" fill="#042C68"/>
<path transform="translate(1649,977)" d="m0 0h13l6 4 4 5 4-2 6-5 5-2h12l7 3 5 6 2 6v42l-1 1h-11l-1-1v-34l-2-7-5-5-6-1-6 3-4 6-2 10-1 29h-12l-1-1-1-38-4-6-6-3-8 2-5 8-1 5-1 33h-13v-57h12l1 1v6l6-4z" fill="#2D2E31"/>
<path transform="translate(1046,1096)" d="m0 0h11l7 3 5 6 3 11v38l-2 1h-17l-2-38-2-5-4-2-8 1-5 6-1 36-1 1h-17l-1-1v-55l1-1h18l1 6 6-4z" fill="#042C69"/>
<path transform="translate(61,955)" d="m0 0h12l2 4v50l3 8 5 5 5 2h13l7-4 3-5 2-7 1-53h12l2 1v46l-2 15-4 8-9 8-10 3h-19l-10-3-8-7-4-9-1-5z" fill="#2E2F33"/>
<path transform="translate(1434,977)" d="m0 0h12l9 4 6 8 3 9v14l-3 10-6 8-5 4-7 2h-13l-8-4-3-3-1 32-8 1-5-1v-83h11l2 1 1 7 7-6zm-4 10-7 4-4 6-1 3v16l4 6 6 4 9 1 8-4 4-6 2-8v-9l-3-7-6-5-2-1z" fill="#2D2F34"/>
<path transform="translate(558,950)" d="m0 0h6l1 71-1 14h-12l-1-3 1-5-6 4-5 4-3 1h-15l-8-4-6-7-4-10v-16l4-10 6-7 10-5h14l8 4 4 3v-33zm-23 36-9 3-5 6-3 9v8l3 8 5 5 4 2h9l6-4 6-7 1-5v-9l-3-9-6-5z" fill="#2E2F31"/>
<path transform="translate(549,1070)" d="m0 0h13v83l-1 2h-9l-2-1-2-7-9 7-3 1h-16l-8-4-6-8-3-10v-13l3-10 6-8 9-5 5-1h10l8 4 4 3zm-20 36-7 4-4 5-2 7v11l4 8 7 5 8 1 8-4 5-6 2-10-1-11-7-8-4-2z" fill="#2D2F34"/>
<path transform="translate(690,950)" d="m0 0h12v85h-12l-2-7-3 1-1 3-8 4h-15l-8-4-6-8-3-7-1-6v-9l3-10 4-6 8-7 6-2h13l8 4 5 4-1-6v-28zm-22 37-6 4-5 8-1 4v9l3 7 5 6 8 3 9-3 5-4 3-6 1-6v-8l-3-8-6-5-2-1z" fill="#313134"/>
<path transform="translate(963,1096)" d="m0 0h16l8 3 5 5 3 4 1 3 1 11v31l-2 2h-13l-4-4v-2l-7 6h-19l-6-4-4-6-1-9 3-7 5-5 9-4 20-3-1-5-3-3h-12l-11 4-4-1v-11l1-2zm7 32-9 3-2 2v8l3 3h11l5-5 1-3v-7l-1-1z" fill="#032B68"/>
<path transform="translate(1329,1096)" d="m0 0h16l10 4 5 5 3 6 1 6v36l-2 2h-14l-3-5-4 2-4 3h-18l-6-4-4-6-1-7 2-8 4-5 8-4 16-3 7-1-1-5-6-4-12 2-8 3h-3l-1-2v-9l4-4zm9 32-9 2-3 3v8l3 3h9l5-3 3-5v-7l-1-1z" fill="#042C68"/>
<path transform="translate(1456,1096)" d="m0 0h15l8 3 5 4 4 7 1 4v40l-2 1h-13l-6-6-2 4-4 2h-18l-6-4-3-5-1-4v-9l4-7 7-4 12-3 13-2-1-6-3-2h-11l-13 4h-2l-1-10 2-4zm10 31-10 2-5 6 1 7 2 2h10l6-5 2-4v-6l-3-2z" fill="#042C68"/>
<path transform="translate(1213,1096)" d="m0 0h17l8 3 7 6 2 4 1 6v39l-1 1h-14l-2-5-4 1-6 4h-17l-5-3-4-5-1-3v-12l4-6 6-4 11-3 15-2-1-5-5-4-11 1-10 3h-4v-10l5-4zm10 32-9 2-4 3v7l4 4 7 1 6-3 3-4 1-9-1-1z" fill="#042B68"/>
<path transform="translate(1281,955)" d="m0 0h45l1 1v9l-1 1h-31l-1 23h30l1 3-1 8h-30v25h34l1 1v9h-47l-1-1z" fill="#2D2E33"/>
<path transform="translate(1023,977)" d="m0 0h17l10 3 6 5 6 12v19l-5 10-9 8-7 2h-19l-9-3-7-6-5-9-1-4v-14l4-11 7-7 8-4zm3 10-6 3-4 5-3 8v9l4 8 5 5 6 2h7l8-4 5-6 1-3v-14l-3-7-6-5-3-1z" fill="#2F3033"/>
<path transform="translate(1928,977)" d="m0 0h15l10 4 4 5 2 5 1 7v36l-1 1h-10l-2-1-1-5-6 5-6 2h-16l-7-6-3-9 2-10 5-6 12-4 19-3-1-5-3-5-4-2h-7l-10 3-5 3-3-1 1-9 8-4zm12 30-14 3-5 3-1 6 3 6 4 3h7l8-5 4-5 1-2v-8l-1-1z" fill="#2E3035"/>
<path transform="translate(1105,977)" d="m0 0h12l7 3 4 4 3 7 1 6v37l-1 1h-12l-1-4v-29l-2-9-5-5-5-1-9 3-4 5-1 2-1 37-1 1h-12l-1-1v-54l5-2h8l1 7 6-4 4-3z" fill="#303236"/>
<path transform="translate(1518,1096)" d="m0 0h18l7 2 1 11-3 2-7-2h-11l-3 1 1 6 19 8 7 8v11l-6 8-6 3-5 1h-26l-4-4v-10l2-1 6 3 5 1h11l4-2v-5l-22-11-5-6v-11l4-6 5-4z" fill="#042C69"/>
<path transform="translate(329,977)" d="m0 0h15l10 4 5 6 4 9 1 13-1 1h-41l1 8 5 6 9 3h8l9-3 5-2 1 1-1 7-4 4-7 2h-19l-9-3-7-7-4-9-1-4v-13l5-12 7-7zm7 8-10 5-4 6-1 5 8 1 22-1-1-7-4-6-7-3z" fill="#2F3136"/>
<path transform="translate(1824,977)" d="m0 0h12l8 4 5 6 1 3 1 11v33l-1 1h-12l-1-1v-35l-3-8-4-3h-10l-4 2-5 8-1 29v7l-1 1h-12l-1-3v-54h13l1 5 1 2 7-6z" fill="#343538"/>
<path transform="translate(1749,977)" d="m0 0h15l10 5 6 8 3 12v7l-1 1h-42l3 9 5 5 7 3h10l8-3 5-2 1 5-3 5-4 3-5 1h-19l-9-3-5-4-5-9-2-8v-9l3-11 6-8 9-6zm5 8-7 4-5 6-2 5 1 1h29l-1-7-4-6-6-3z" fill="#343539"/>
<path transform="translate(1164,977)" d="m0 0h16l8 3 6 7 2 7v40l-1 1h-10l-2-3v-4l-9 7-3 1h-15l-6-4-4-5-1-2v-12l4-6 7-4 13-3 11-1 3-2-4-8-3-2h-12l-12 5-3-1 1-7 4-4zm11 30-13 3-5 4 1 9 5 5 5 1 10-5 5-6 1-8-1-3z" fill="#2D2F35"/>
<path transform="translate(729,1096)" d="m0 0h15l8 4 5 6 2 7v39l-1 3h-10l-1-7-5 3-7 4h-16l-7-4-4-7v-10l3-6 5-4 9-3 21-3-3-9-4-3h-8l-9 2-6 3h-3v-8l5-4zm8 31-13 3-4 4 1 8 5 5 6 1 10-5 4-6 1-3v-7z" fill="#2E3035"/>
<path transform="translate(601,1096)" d="m0 0h11l9 3 5 5 5 8 2 11v5l-1 1h-42l4 11 6 5 3 1h14l8-4h4l-1 7-4 4-5 2-14 1-12-2-7-4-6-9-3-10v-10l3-10 7-8 5-4zm2 9-6 3-6 7v6h27l1-1-1-8-5-6-2-1z" fill="#2F3034"/>
<path transform="translate(1497,977)" d="m0 0h13l11 4 5 6 4 11 1 10-1 2h-40l1 9 4 5 8 3h10l8-3 5-1 1 5-3 5-9 3h-20l-8-3-7-7-5-12v-13l4-11 7-8 7-4zm5 8-8 4-5 8v4l5 1h20l4-1-2-9-4-5-4-2z" fill="#303135"/>
<path transform="translate(865,977)" d="m0 0h16l9 4 5 8 1 4 1 41-1 1h-11l-2-7-9 7-2 1h-15l-8-5-4-8v-7l3-7 6-5 15-4 15-2-3-7-4-4-8-1-13 4-6 2v-7l4-5zm11 30-11 2-6 4-2 3 1 7 6 5 4 1 9-4 7-7 1-8-2-3z" fill="#2F2F33"/>
<path transform="translate(598,977)" d="m0 0h16l9 4 5 6 1 4v44h-11l-1-7-9 7-3 1h-15l-6-4-4-5-1-2v-11l4-7 7-4 13-3 11-1 3-1-2-6-5-5h-12l-10 4-4 1v-8l4-4zm12 30-14 3-5 4v7l3 5 5 3 6-1 7-4 5-6 1-10-1-1z" fill="#2E2F33"/>
<path transform="translate(175,977)" d="m0 0h10l8 3 6 6 2 9v39l-1 1h-12l-1-37-4-8-3-2h-9l-6 3-4 6-1 5v32l-1 1h-12v-57h13l1 7 7-6z" fill="#2D2E30"/>
<path transform="translate(1400,1096)" d="m0 0h21l4 2 1 5v9l-2 1-4-2h-15l-6 4-3 5-1 9 3 8 5 4 6 2 8-1 5-2h3l1 5-1 7-5 3h-23l-8-3-7-6-5-9-1-4v-13l3-9 9-10 8-4z" fill="#042C69"/>
<path transform="translate(1336,978)" d="m0 0h14l3 1 8 14 3 6 3-1 9-16 4-4h14l-2 4-8 11-9 13 1 4 13 18 4 5v3l-14-1-4-4-9-15-3-1-4 8-7 11-1 1h-15l3-5 15-21-1-5-8-12-7-10z" fill="#2D2F33"/>
<path transform="translate(242,978)" d="m0 0h15l3 8 11 35 2 4 6-20 8-25 5-2h11l-3 9-16 38-4 8-2 2h-12l-3-2-12-30-9-23z" fill="#2F3135"/>
<path transform="translate(931,1096)" d="m0 0 6 1 1 9-1 7h-13l-5 3-2 5-1 6-1 27-1 1h-15l-2-2v-55l1-1h18v6l5-1 2-4z" fill="#052C69"/>
<path transform="translate(1297,1096)" d="m0 0 7 1v16h-14l-5 5-2 6-1 30h-18v-56l1-1h17l1 6 7-4 2-2z" fill="#042C68"/>
<path transform="translate(436,977)" d="m0 0h19l5 2v11l-5-2-3-1h-13l-5 3-1 4 5 5 15 6 8 6 2 4v8l-3 5-7 6-7 2h-19l-7-2v-11l4 1 7 3h11l6-3 2-5-5-4-15-7-7-5-3-7 2-10 8-7z" fill="#2F3034"/>
<path transform="translate(935,977)" d="m0 0h18l5 2 1 8-1 4-6-2-10-2-9 3-5 5-3 7v12l3 6 5 4 4 2h11l8-4h2l1 7-3 5-6 2h-18l-9-3-6-5-5-8-2-6v-12l4-11 7-8 6-4z" fill="#2F3034"/>
<path transform="translate(1881,962)" d="m0 0h4v16h15v9l-1 1h-14l1 33 2 5h12v7l-1 2-4 1h-13l-6-3-3-5-1-15 1-25h-12v-10h12v-13z" fill="#2E2E31"/>
<path transform="translate(680,1070)" d="m0 0h13l1 1v83l-1 1h-12l-1-1z" fill="#2F333A"/>
<path transform="translate(1215,950)" d="m0 0h11l1 1v83l-1 1h-12l-1-5v-78z" fill="#3B3C3F"/>
<path transform="translate(1985,950)" d="m0 0h5v85h-12l-1-1v-83z" fill="#2D2C2E"/>
<path transform="translate(1576,977)" d="m0 0 4 1v10l-15 3-4 5-2 3-1 34-1 2h-12l-1-1v-55l1-1h10l3 2v6l8-7 1-1z" fill="#3A3B3F"/>
<path transform="translate(405,977)" d="m0 0h6l2 1v11h-9l-7 3-4 5-2 5-1 32-1 1h-11l-1-1v-55l1-1h12l1 1v8h2l2-4 4-4z" fill="#2D2F35"/>
<path transform="translate(1590,978)" d="m0 0h13l1 1v55l-1 1h-13z" fill="#2F3035"/>
<path transform="translate(972,978)" d="m0 0h13v56l-1 1h-12l-1-39v-17z" fill="#2D2E31"/>
<path transform="translate(218,978)" d="m0 0h13l1 4-1 53h-12l-1-1z" fill="#2E2F34"/>
<path transform="translate(477,978)" d="m0 0h13v56l-1 1h-11l-1-5z" fill="#2C2F35"/>
<path transform="translate(973,952)" d="m0 0h11l2 1v8l-2 4h-10l-3-3v-8z" fill="#292E37"/>
<path transform="translate(220,952)" d="m0 0h10l3 3-1 8-2 2h-9l-3-3-1-7z" fill="#2F3035"/>
<path transform="translate(1592,952)" d="m0 0h9l3 1v9l-2 3h-8l-4-2-1-9z" fill="#2C2F36"/>
<path transform="translate(479,952)" d="m0 0h9l3 2v7l-1 3-2 1h-8l-4-4v-6z" fill="#2A2D33"/>
</svg>
